<svg width="97" height="18" viewBox="0 0 97 18" fill="none" xmlns="http://www.w3.org/2000/svg">
<g id="Social Icons">
<path id="icon-twitter" opacity="0.6" fill-rule="evenodd" clip-rule="evenodd" d="M21 2.90668C20.2281 3.22828 19.395 3.44652 18.5251 3.53841C19.4195 3.03302 20.0933 2.25197 20.4242 1.29864C19.591 1.75808 18.6721 2.10266 17.6919 2.27495C16.9078 1.4939 15.7806 1 14.5432 1C12.1663 1 10.2305 2.81479 10.2305 5.04307C10.2305 5.36468 10.2672 5.66332 10.3407 5.96195C6.76313 5.78966 3.5776 4.18162 1.45799 1.7351C1.09043 2.33238 0.869895 3.02154 0.869895 3.76813C0.869895 5.16942 1.62952 6.40991 2.79347 7.13352C2.08285 7.11055 1.42124 6.92678 0.845391 6.62814C0.845391 6.63963 0.845391 6.6626 0.845391 6.67408C0.845391 8.62671 2.32789 10.2692 4.30047 10.6368C3.93291 10.7286 3.55309 10.7746 3.16103 10.7746C2.87923 10.7746 2.60968 10.7516 2.35239 10.7057C2.90373 12.3137 4.4965 13.4853 6.38331 13.5083C4.91307 14.5879 3.05076 15.2426 1.02917 15.2426C0.686114 15.2426 0.343057 15.2197 0 15.1852C1.91132 16.3338 4.17795 17 6.60385 17C14.5309 17 18.8681 10.8435 18.8681 5.50251C18.8681 5.33022 18.8681 5.15793 18.8559 4.97416C19.689 4.43431 20.4242 3.72218 21 2.90668Z" fill="#2B292D"/>
<path id="icon-fb" opacity="0.6" fill-rule="evenodd" clip-rule="evenodd" d="M59 1.70833V17.2917C59 17.5732 58.5549 17.9936 58.25 18H53.75V11.625H56V8.79167H53.75V7.375C53.4226 6.46497 53.6384 5.96178 54.5 5.95833H56V3.83333C55.9584 3.63694 55.1087 3.56688 53.75 3.83333C52.0333 3.56688 50.6171 4.76433 50.75 6.66667V8.79167H48.5V11.625H50.75V18H41.75C41.4451 18 41 17.5796 41 17.2917V1.70833C41 1.42038 41.4451 1 41.75 1H58.25C58.5549 1 59 1.41401 59 1.70833Z" fill="#2B292D"/>
<path id="LinkedIn" opacity="0.6" fill-rule="evenodd" clip-rule="evenodd" d="M81.1838 0C79.8636 0 79 0.855911 79 1.98146C79 3.08249 79.8386 3.96437 81.1326 3.96437H81.1584C82.5042 3.96437 83.3412 3.08265 83.3412 1.98146C83.3158 0.855911 82.5042 0 81.1838 0ZM97 10.4227V17H93.142V10.8632C93.142 9.32158 92.584 8.26949 91.1875 8.26949C90.1215 8.26949 89.4871 8.97852 89.208 9.66439C89.1063 9.90959 89.0801 10.2509 89.0801 10.5941V17H85.2208C85.2208 17 85.2728 6.60627 85.2208 5.5294H89.0797V7.15531C89.076 7.16105 89.0718 7.16701 89.0676 7.17293L89.0676 7.17295C89.0629 7.17957 89.0582 7.18615 89.0543 7.19237H89.0797V7.15531C89.5924 6.37485 90.508 5.25992 92.5574 5.25992C95.0965 5.25988 97 6.89936 97 10.4227ZM83.087 17H79.2292V5.5294H83.087V17Z" fill="#2B292D"/>
</g>
</svg>
